<svg version="1.1" xmlns="http://www.w3.org/2000/svg" xmlns:xlink="http://www.w3.org/1999/xlink" width="170.15911" height="124.47011" viewBox="0,0,170.15911,124.47011"><g transform="translate(-173.33043,-117.90837)"><g data-paper-data="{&quot;isPaintingLayer&quot;:true}" fill-rule="nonzero" stroke-linecap="butt" stroke-linejoin="miter" stroke-miterlimit="10" stroke-dasharray="" stroke-dashoffset="0" style="mix-blend-mode: normal"><path d="M176,236.5v-113h128v113z" fill="#000000" stroke="none" stroke-width="0"/><path d="M191.54731,191.48008v-22.96016h151.94223v22.96016z" fill="#191919" stroke="none" stroke-width="0"/><path d="M186.31375,125.30079c-6.48013,0 -11.73332,-1.36053 -11.73332,-3.03884c0,-1.67831 5.25319,-3.03884 11.73332,-3.03884c6.48013,0 11.73331,1.36053 11.73331,3.03884c0,1.67831 -5.25318,3.03884 -11.73331,3.03884z" fill="#b3b3b3" stroke="#000000" stroke-width="2.5"/><path d="M208.02739,125.23605c-6.48013,0 -11.73332,-1.36053 -11.73332,-3.03884c0,-1.67831 5.25319,-3.03884 11.73332,-3.03884c6.48013,0 11.73332,1.36053 11.73332,3.03884c0,1.67831 -5.25319,3.03884 -11.73332,3.03884z" fill="#b3b3b3" stroke="#000000" stroke-width="2.5"/><path d="M229.23456,125.50896c-6.48013,0 -11.73331,-1.36053 -11.73331,-3.03884c0,-1.67831 5.25318,-3.03884 11.73331,-3.03884c6.48013,0 11.73332,1.36053 11.73332,3.03884c0,1.67831 -5.25319,3.03884 -11.73332,3.03884z" fill="#b3b3b3" stroke="#000000" stroke-width="2.5"/><path d="M250.77938,125.78187c-6.48013,0 -11.73332,-1.36053 -11.73332,-3.03884c0,-1.67831 5.25319,-3.03884 11.73332,-3.03884c6.48013,0 11.73332,1.36053 11.73332,3.03884c0,1.67831 -5.25319,3.03884 -11.73332,3.03884z" fill="#b3b3b3" stroke="#000000" stroke-width="2.5"/><path d="M271.31125,126.05478c-6.48013,0 -11.73332,-1.36053 -11.73332,-3.03884c0,-1.67831 5.25319,-3.03884 11.73332,-3.03884c6.48013,0 11.73332,1.36053 11.73332,3.03884c0,1.67831 -5.25319,3.03884 -11.73332,3.03884z" fill="#b3b3b3" stroke="#000000" stroke-width="2.5"/><path d="M292.43973,125.74254c-6.48013,0 -11.73331,-1.36054 -11.73331,-3.03885c0,-1.67831 5.25318,-3.03884 11.73331,-3.03884c6.48013,0 11.73332,1.36053 11.73332,3.03884c0,1.67831 -5.25319,3.03885 -11.73332,3.03885z" fill="#b3b3b3" stroke="#000000" stroke-width="2.5"/><path d="M187.43078,240.3745c-6.48013,0 -11.73332,-1.36053 -11.73332,-3.03884c0,-1.67831 5.25319,-3.03884 11.73332,-3.03884c6.48013,0 11.73331,1.36053 11.73331,3.03884c0,1.67831 -5.25318,3.03884 -11.73331,3.03884z" fill="#b3b3b3" stroke="#000000" stroke-width="2.5"/><path d="M209.14442,240.30977c-6.48013,0 -11.73332,-1.36054 -11.73332,-3.03885c0,-1.67831 5.25319,-3.03884 11.73332,-3.03884c6.48013,0 11.73332,1.36053 11.73332,3.03884c0,1.67832 -5.25319,3.03885 -11.73332,3.03885z" fill="#b3b3b3" stroke="#000000" stroke-width="2.5"/><path d="M230.35159,240.58266c-6.48013,0 -11.73331,-1.36053 -11.73331,-3.03884c0,-1.67831 5.25318,-3.03884 11.73331,-3.03884c6.48013,0 11.73332,1.36053 11.73332,3.03884c0,1.67831 -5.25319,3.03884 -11.73332,3.03884z" fill="#b3b3b3" stroke="#000000" stroke-width="2.5"/><path d="M251.89641,240.85557c-6.48013,0 -11.73332,-1.36053 -11.73332,-3.03884c0,-1.67831 5.25319,-3.03884 11.73332,-3.03884c6.48013,0 11.73332,1.36053 11.73332,3.03884c0,1.67831 -5.25319,3.03884 -11.73332,3.03884z" fill="#b3b3b3" stroke="#000000" stroke-width="2.5"/><path d="M272.42828,241.12848c-6.48013,0 -11.73332,-1.36053 -11.73332,-3.03884c0,-1.67831 5.25319,-3.03884 11.73332,-3.03884c6.48013,0 11.73332,1.36053 11.73332,3.03884c0,1.67831 -5.25319,3.03884 -11.73332,3.03884z" fill="#b3b3b3" stroke="#000000" stroke-width="2.5"/><path d="M293.55677,240.81623c-6.48013,0 -11.73331,-1.36053 -11.73331,-3.03884c0,-1.67831 5.25318,-3.03884 11.73331,-3.03884c6.48013,0 11.73332,1.36053 11.73332,3.03884c0,1.67831 -5.25319,3.03884 -11.73332,3.03884z" fill="#b3b3b3" stroke="#000000" stroke-width="2.5"/><path d="M285.32943,148.42978c0,6.80647 -6.34917,12.3242 -14.18127,12.3242c-7.8321,0 -14.18127,-5.51773 -14.18127,-12.3242c0,-6.80647 6.34917,-12.3242 14.18127,-12.3242c7.8321,0 14.18127,5.51773 14.18127,12.3242z" fill="#b3b3b3" stroke="#000000" stroke-width="1.5"/><path d="M191.4629,210.55727v-64.65986h55.54333v64.65986z" fill="#191919" stroke="none" stroke-width="0"/></g></g></svg>