<svg version="1.1" xmlns="http://www.w3.org/2000/svg" xmlns:xlink="http://www.w3.org/1999/xlink" width="170.15911" height="145.60507" viewBox="0,0,170.15911,145.60507"><g transform="translate(-173.33043,-107.92481)"><g data-paper-data="{&quot;isPaintingLayer&quot;:true}" fill-rule="nonzero" stroke-linecap="butt" stroke-linejoin="miter" stroke-miterlimit="10" stroke-dasharray="" stroke-dashoffset="0" style="mix-blend-mode: normal"><path d="M250.77938,125.78187c-6.48013,0 -11.73332,-1.36053 -11.73332,-3.03884c0,-1.67831 5.25319,-3.03884 11.73332,-3.03884c6.48013,0 11.73332,1.36053 11.73332,3.03884c0,1.67831 -5.25319,3.03884 -11.73332,3.03884z" fill="#b3b3b3" stroke="#000000" stroke-width="2.5"/><path d="M271.31125,126.05478c-6.48013,0 -11.73332,-1.36053 -11.73332,-3.03884c0,-1.67831 5.25319,-3.03884 11.73332,-3.03884c6.48013,0 11.73332,1.36053 11.73332,3.03884c0,1.67831 -5.25319,3.03884 -11.73332,3.03884z" fill="#b3b3b3" stroke="#000000" stroke-width="2.5"/><path d="M292.43973,125.74254c-6.48013,0 -11.73331,-1.36054 -11.73331,-3.03885c0,-1.67831 5.25318,-3.03884 11.73331,-3.03884c6.48013,0 11.73332,1.36053 11.73332,3.03884c0,1.67831 -5.25319,3.03885 -11.73332,3.03885z" fill="#b3b3b3" stroke="#000000" stroke-width="2.5"/><path d="M186.31375,125.30079c-6.48013,0 -11.73332,-1.36053 -11.73332,-3.03884c0,-1.67831 5.25319,-3.03884 11.73332,-3.03884c6.48013,0 11.73331,1.36053 11.73331,3.03884c0,1.67831 -5.25318,3.03884 -11.73331,3.03884z" fill="#b3b3b3" stroke="#000000" stroke-width="2.5"/><path d="M208.02739,125.23605c-6.48013,0 -11.73332,-1.36053 -11.73332,-3.03884c0,-1.67831 5.25319,-3.03884 11.73332,-3.03884c6.48013,0 11.73332,1.36053 11.73332,3.03884c0,1.67831 -5.25319,3.03884 -11.73332,3.03884z" fill="#b3b3b3" stroke="#000000" stroke-width="2.5"/><path d="M229.23456,125.50896c-6.48013,0 -11.73331,-1.36053 -11.73331,-3.03884c0,-1.67831 5.25318,-3.03884 11.73331,-3.03884c6.48013,0 11.73332,1.36053 11.73332,3.03884c0,1.67831 -5.25319,3.03884 -11.73332,3.03884z" fill="#b3b3b3" stroke="#000000" stroke-width="2.5"/><path d="M191.14493,240.88097c-6.48013,0 -11.73332,-1.36053 -11.73332,-3.03884c0,-1.67831 5.25319,-3.03884 11.73332,-3.03884c6.48013,0 11.73331,1.36053 11.73331,3.03884c0,1.67831 -5.25318,3.03884 -11.73331,3.03884z" fill="#b3b3b3" stroke="#000000" stroke-width="2.5"/><path d="M212.85856,240.81624c-6.48013,0 -11.73332,-1.36054 -11.73332,-3.03885c0,-1.67831 5.25319,-3.03884 11.73332,-3.03884c6.48013,0 11.73332,1.36053 11.73332,3.03884c0,1.67832 -5.25319,3.03885 -11.73332,3.03885z" fill="#b3b3b3" stroke="#000000" stroke-width="2.5"/><path d="M234.06573,241.08913c-6.48013,0 -11.73331,-1.36053 -11.73331,-3.03884c0,-1.67831 5.25318,-3.03884 11.73331,-3.03884c6.48013,0 11.73332,1.36053 11.73332,3.03884c0,1.67831 -5.25319,3.03884 -11.73332,3.03884z" fill="#b3b3b3" stroke="#000000" stroke-width="2.5"/><path d="M255.61055,241.36204c-6.48013,0 -11.73332,-1.36053 -11.73332,-3.03884c0,-1.67831 5.25319,-3.03884 11.73332,-3.03884c6.48013,0 11.73332,1.36053 11.73332,3.03884c0,1.67831 -5.25319,3.03884 -11.73332,3.03884z" fill="#b3b3b3" stroke="#000000" stroke-width="2.5"/><path d="M276.14243,241.63495c-6.48013,0 -11.73332,-1.36053 -11.73332,-3.03884c0,-1.67831 5.25319,-3.03884 11.73332,-3.03884c6.48013,0 11.73332,1.36053 11.73332,3.03884c0,1.67831 -5.25319,3.03884 -11.73332,3.03884z" fill="#b3b3b3" stroke="#000000" stroke-width="2.5"/><path d="M297.27091,241.3227c-6.48013,0 -11.73331,-1.36053 -11.73331,-3.03884c0,-1.67831 5.25318,-3.03884 11.73331,-3.03884c6.48013,0 11.73332,1.36053 11.73332,3.03884c0,1.67831 -5.25319,3.03884 -11.73332,3.03884z" fill="#b3b3b3" stroke="#000000" stroke-width="2.5"/><path d="M176,236.5v-113h128v113z" fill="#000000" stroke="none" stroke-width="0"/><path d="M240.25324,124.79433v-13.50598h5.06475v13.50598z" fill="#000000" stroke="#000000" stroke-width="2"/><path d="M240.25324,115.17132v-4.72709h22.28486v4.72709z" fill="#000000" stroke="#000000" stroke-width="2"/><path d="M261.52515,114.15837v-2.70119h7.59711v2.70119z" fill="#000000" stroke="#000000" stroke-width="2"/><path d="M269.62874,113.31425v-1.01295h4.89592v1.01295z" fill="#000000" stroke="#000000" stroke-width="2"/><path d="M232.65613,109.09363v-0.16882h20.93427v0.16882z" fill="#000000" stroke="#000000" stroke-width="2"/><path d="M245.08441,236.66036v13.50598h-5.06475v-13.50598z" data-paper-data="{&quot;index&quot;:null}" fill="#000000" stroke="#000000" stroke-width="2"/><path d="M262.30453,246.28337v4.72709h-22.28487v-4.72709z" data-paper-data="{&quot;index&quot;:null}" fill="#000000" stroke="#000000" stroke-width="2"/><path d="M268.88869,247.29632v2.7012h-7.59711v-2.7012z" data-paper-data="{&quot;index&quot;:null}" fill="#000000" stroke="#000000" stroke-width="2"/><path d="M273.78461,247.97161v1.01295h-4.89592v-1.01295z" data-paper-data="{&quot;index&quot;:null}" fill="#000000" stroke="#000000" stroke-width="2"/><path d="M253.35682,252.36106v0.16882h-20.93426v-0.16882z" data-paper-data="{&quot;index&quot;:null}" fill="#000000" stroke="#000000" stroke-width="2"/><path d="M191.4629,210.55727v-64.65986h55.54333v64.65986z" fill="#191919" stroke="none" stroke-width="0"/><path d="M191.54731,191.48008v-22.96016h151.94223v22.96016z" fill="#191919" stroke="none" stroke-width="0"/><path d="M285.32943,148.42978c0,6.80647 -6.34917,12.3242 -14.18127,12.3242c-7.8321,0 -14.18127,-5.51773 -14.18127,-12.3242c0,-6.80647 6.34917,-12.3242 14.18127,-12.3242c7.8321,0 14.18127,5.51773 14.18127,12.3242z" fill="#b3b3b3" stroke="#000000" stroke-width="1.5"/></g></g></svg>