<svg version="1.1" xmlns="http://www.w3.org/2000/svg" xmlns:xlink="http://www.w3.org/1999/xlink" width="738.34596" height="473.38687" viewBox="0,0,738.34596,473.38687"><g transform="translate(198.81362,96.10332)"><g data-paper-data="{&quot;isPaintingLayer&quot;:true}" fill-rule="nonzero" stroke="none" stroke-linecap="butt" stroke-linejoin="miter" stroke-miterlimit="10" stroke-dasharray="" stroke-dashoffset="0" style="mix-blend-mode: normal"><path d="M-9.68699,377.28355v-391.20431h513.3856v391.20431z" fill="#777777" stroke-width="0"/><path d="M-15.71282,22.70594v-8.76703h555.24516v8.76703z" fill="#2d2d2d" stroke-width="0"/><path d="M-7.79048,90.24408v-8.76703h545.89366v8.76703z" fill="#2d2d2d" stroke-width="0"/><path d="M-198.81362,-93.60331c0,-1.38071 1.11929,-2.5 2.5,-2.5c1.38071,0 2.5,1.11929 2.5,2.5c0,1.38071 -1.11929,2.5 -2.5,2.5c-1.38071,0 -2.5,-1.11929 -2.5,-2.5z" fill="#2d2d2d" stroke-width="0.5"/><path d="M459.1179,2.03996c0,-6.90356 5.59644,-12.5 12.5,-12.5c6.90356,0 12.5,5.59644 12.5,12.5c0,6.90356 -5.59644,12.5 -12.5,12.5c-6.90356,0 -12.5,-5.59644 -12.5,-12.5z" fill="#616161" stroke-width="0.5"/><path d="M-11.19591,0.56447c0,-6.90356 5.59644,-12.5 12.5,-12.5c6.90356,0 12.5,5.59644 12.5,12.5c0,6.90356 -5.59644,12.5 -12.5,12.5c-6.90356,0 -12.5,-5.59644 -12.5,-12.5z" fill="#616161" stroke-width="0.5"/><path d="M-6.76942,0.93334c0,-6.90356 5.59644,-12.5 12.5,-12.5c6.90356,0 12.5,5.59644 12.5,12.5c0,6.90356 -5.59644,12.5 -12.5,12.5c-6.90356,0 -12.5,-5.59644 -12.5,-12.5z" fill="#383838" stroke-width="0.5"/><path d="M13.28635,14.16185c-0.6868,-2.40381 1.71701,-3.09061 1.71701,-3.09061l2.74752,-0.77896c0.67628,-0.09784 1.38455,-0.46261 2.0522,-0.48842c0.8962,-0.90126 2.27934,-0.62462 2.27934,-0.62462c0.24573,0.04914 0.49146,0.09829 0.73718,0.14743l1.37431,-0.17179c0.11412,-0.01595 0.2307,-0.0242 0.34921,-0.0242c0.78593,0 1.48716,0.36266 1.94546,0.92978l2.9259,0.58518c1.16847,0.20987 2.05513,1.23166 2.05513,2.46054c0,1.38071 -1.11929,2.5 -2.5,2.5h-3.31986v-0.14273c-0.11061,0.04021 -0.22122,0.0804 -0.33183,0.12061l-0.29525,-0.17858l-0.03071,0.11261l-3.02005,-0.82365l-0.62722,0.12544l-0.06272,-0.31362l-0.01096,-0.00298c-0.80035,0.31889 -1.62373,0.55879 -2.47733,0.67905l-2.4167,0.69653c0,0 -2.40381,0.6868 -3.09061,-1.71701z" fill="#2d2d2d" stroke-width="0.5"/><path d="M50.64036,17.06638c0,0 -2.48471,0.27608 -2.76079,-2.20863c-0.02983,-0.26848 -0.02743,-0.51116 0.00059,-0.7305c-0.01049,-0.093 -0.01588,-0.18753 -0.01588,-0.28333c0,-1.30616 1.00167,-2.37835 2.27875,-2.49034l3.66123,-0.36612l0.00495,0.04954c0.03975,-0.01961 0.07952,-0.03923 0.11928,-0.05884l0.12453,0.04328v-0.04638h4.05761c0.48562,0 0.93891,0.13846 1.32253,0.37806c1.27963,0.10946 2.2841,1.18283 2.2841,2.49081c0,1.38071 -1.11929,2.5 -2.5,2.5h-2.8171c-1.91495,0.27758 -3.83667,0.50861 -5.75979,0.72246z" fill="#2d2d2d" stroke-width="0.5"/><path d="M95.73573,17.45053c-1.81046,0 -6.78623,0 -7.74635,0c0,0 -2.5,0 -2.5,-2.5c0,-2.5 2.5,-2.5 2.5,-2.5c1.59845,0 3.19691,0 4.79536,0h2.95099c1.81151,-0.76733 3.93465,0 5.90198,0h2.58212c1.38071,0 2.5,1.11929 2.5,2.5c0,1.38071 -1.11929,2.5 -2.5,2.5h-2.58212c-1.96733,0 -4.09047,0.76733 -5.90198,0z" fill="#2d2d2d" stroke-width="0.5"/><path d="M486.95383,18.40181c0.60634,2.42535 -1.81902,3.03169 -1.81902,3.03169l-1.4755,0.36887c-8.98122,2.24463 -17.56354,3.3945 -26.79636,3.3945c-12.44497,0 -25.00911,-0.65153 -37.41158,-1.48033c-7.5142,-0.50213 -14.78233,-2.20841 -22.34594,-2.20841c0,0 -2.5,0 -2.5,-2.5c0,-1.72768 1.19395,-2.2614 1.93164,-2.42629c-15.37403,-0.1728 -30.81123,-0.29706 -46.02982,1.22515l-1.72425,0.01241c0,0 -2.5,0 -2.5,-2.5c0,-2.5 2.5,-2.5 2.5,-2.5l1.22673,0.01241c20.87444,-2.08696 42.14717,-1.11903 63.1215,-1.11903c20.11755,0 40.20256,-0.36887 60.33103,-0.36887c0,0 2.5,0 2.5,2.5c0,2.5 -2.5,2.5 -2.5,2.5c-20.12852,0 -40.21337,0.36887 -60.33103,0.36887c-4.09984,0 -8.21153,-0.03793 -12.32963,-0.083c6.36284,0.39976 12.57202,1.67168 18.96047,2.09643c12.29991,0.81779 24.75938,1.47066 37.10089,1.47066c8.82436,0 16.99448,-1.09726 25.58369,-3.24522l1.4755,-0.36887c0,0 2.42535,-0.60633 3.03169,1.81902z" fill="#2d2d2d" stroke-width="0.5"/><path d="M380.42401,19.7459c0,2.5 -2.5,2.5 -2.5,2.5l-0.05879,-0.0193c-4.35352,0.53737 -8.70992,0.52645 -13.08242,0.75322c-6.28946,0.32619 -12.54593,1.53129 -18.8469,1.84604c-6.88147,0.34374 -13.8701,0.00216 -20.76081,0.00216c-4.40598,-0.00793 -8.65869,-0.86602 -13.04883,-1.11044c-16.13151,-0.89813 -32.38043,-1.1028 -48.55306,-1.1028c0,0 -2.5,0 -2.5,-2.5c0,-2.5 2.5,-2.5 2.5,-2.5c2.50893,0 5.01966,0.00502 7.53149,0.01681c-2.7896,-0.37839 -5.38624,-0.92453 -8.26923,-0.91879c-10.31001,-0.00829 -20.6536,-0.36887 -30.98538,-0.36887h-1.47549c0,0 -2.5,0 -2.5,-2.5c0,-2.5 2.5,-2.5 2.5,-2.5h1.47549c10.32983,0 20.67823,0.37786 30.98538,0.36887c3.52225,0.00621 6.67421,0.7414 10.16579,1.11514c6.28869,0.67314 13.01771,-0.0086 19.3441,-0.00852c12.71907,0.00016 25.50191,-1.04359 38.20159,0.00863c0,0 2.49136,0.20762 2.28375,2.69898c-0.20761,2.49137 -2.69898,2.28375 -2.69898,2.28375c-12.55555,-1.05259 -25.21058,0.00848 -37.78636,0.00864c-1.00782,0.00002 -2.02472,0.01599 -3.04773,0.04045c7.71427,0.16786 15.4228,0.43941 23.10515,0.86535c4.29401,0.23808 8.4666,1.11141 12.77233,1.1028c6.82115,0 13.74122,0.3431 20.55302,0.00216c6.27856,-0.31425 12.51036,-1.50821 18.7782,-1.8427c4.25397,-0.22702 8.505,-0.18567 12.73874,-0.72227l0.67896,-0.0193c0,0 2.5,0 2.5,2.5z" fill="#2d2d2d" stroke-width="0.5"/><path d="M125.36174,14.62379c-0.41099,-2.46598 2.05499,-2.87698 2.05499,-2.87698l2.0179,-0.32825c6.29072,-1.56569 12.91821,-1.58826 19.34311,-0.79515c20.95803,2.36257 41.86101,2.72814 62.96142,1.09675c0,0 2.49264,-0.19174 2.68438,2.3009c0.19174,2.49264 -2.30089,2.68438 -2.30089,2.68438c-21.44285,1.64136 -42.6271,1.21291 -63.93108,-1.1165c-5.80801,-0.73593 -11.85709,-0.74833 -17.54425,0.68035l-2.40859,0.4095c0,0 -2.46599,0.411 -2.87698,-2.05499z" fill="#2d2d2d" stroke-width="0.5"/><path d="M42.16695,21.95914c0,2.5 -2.5,2.5 -2.5,2.5h-0.73775c-9.17034,0 -18.23658,1.47958 -27.36068,1.47468c-5.08731,-0.00273 -10.03159,-0.58966 -15.15257,-0.01447c0,0 -2.48471,0.27608 -2.76079,-2.20863c-0.27608,-2.48471 2.20864,-2.76079 2.20864,-2.76079c5.35247,-0.58876 10.51641,-0.01135 15.83281,-0.01447c9.07637,-0.00532 18.10435,-1.47631 27.23261,-1.47631h0.73775c0,0 2.5,0 2.5,2.5z" fill="#2d2d2d" stroke-width="0.5"/><path d="M143.60718,20.48364c0,2.5 -2.5,2.5 -2.5,2.5l-0.42766,-0.01931c-8.01953,1.00193 -16.21668,1.84745 -24.28687,1.86368c-13.53536,0 -27.1947,1.58196 -40.73144,0.73292c-5.90099,-0.37012 -11.20643,-2.21374 -17.18171,-2.20841c0,0 -2.5,0 -2.5,-2.5c0,-2.5 2.5,-2.5 2.5,-2.5c6.09519,0.00511 11.49912,1.84498 17.4924,2.21807c13.43108,0.83611 26.98983,-0.74258 40.42075,-0.74258c7.85285,0.0178 15.86295,-0.84908 23.66669,-1.82506l1.04784,-0.0193c0,0 2.5,0 2.5,2.5z" fill="#2d2d2d" stroke-width="0.5"/><path d="M253.08799,19.50843c0.60634,2.42535 -1.81902,3.03169 -1.81902,3.03169l-1.63462,0.40319c-8.96495,1.62899 -18.26904,1.8847 -27.37499,1.8847c-13.594,0 -27.54168,0.90392 -41.10031,-0.00483c-7.44217,-0.4988 -14.49526,-2.20842 -21.97707,-2.20842c0,0 -2.5,0 -2.5,-2.5c0,-2.5 2.5,-2.5 2.5,-2.5c7.59775,0 14.739,1.7179 22.28776,2.21808c13.45622,0.8916 27.29838,-0.00483 40.78962,-0.00483c8.80646,0 17.81124,-0.22681 26.48056,-1.80404l1.31637,-0.33456c0,0 2.42536,-0.60633 3.0317,1.81902z" fill="#2d2d2d" stroke-width="0.5"/><path d="M292.05858,84.66765c0,-2.5 2.5,-2.5 2.5,-2.5h2.21324c4.41033,0.006 7.54514,-1.38257 11.72677,-2.17313c0.83905,-0.15863 1.69203,-0.23053 2.54637,-0.29238c0.7353,-0.85435 1.9573,-0.85435 1.9573,-0.85435c6.39381,0 14.26311,0 20.65692,0c21.8857,0 43.77562,0.73775 65.65949,0.73775c0,0 2.5,0 2.5,2.5c0,2.5 -2.5,2.5 -2.5,2.5c0,0 -2.5,0 -2.5,-2.5c0,-2.5 2.5,-2.5 2.5,-2.5h1.4755c7.77767,0 15.47917,-0.36888 23.23904,-0.36888c6.91922,0 13.97895,0.39173 20.88754,0.00382c5.08597,-0.28557 10.28861,-0.70191 15.40032,-0.36887c7.69036,0.50104 15.64672,2.61524 22.87197,5.31958c0,0 2.34082,0.87781 1.46301,3.21863c-0.24084,0.64225 -0.59182,1.0422 -0.97436,1.28448c-0.3222,0.29511 -0.6173,0.44266 -0.6173,0.44266l-1.4755,0.73775c-3.63662,1.7405 -5.24894,1.45996 -9.05603,1.73314c-3.33713,0.23946 -5.9131,1.66999 -9.10151,2.20176c-2.75747,0.4599 -7.18521,-0.44951 -9.9616,-0.7594c-8.24786,-2.04658 -15.93347,-2.1297 -24.36827,-2.54453c-2.72681,-0.13411 -5.39164,-0.91794 -8.11522,-1.10662c-3.0313,-0.20999 -6.70071,0.96949 -9.75036,1.10589c-4.35501,0.19478 -9.25308,0.46529 -13.54674,-0.42159c-1.10209,-0.22764 -2.08731,-0.89907 -3.19743,-1.08361c-1.93115,-0.32102 -4.5597,0.29131 -6.4518,0.39626c-4.84427,0.26869 -9.45655,0.82426 -14.28123,1.46671c-12.77753,0.9853 -25.90032,1.76036 -38.72793,1.11814c-7.27031,-0.36399 -14.52927,-1.11079 -21.79789,-1.47716c-7.28957,-0.36743 -14.63673,0.14803 -21.89467,-0.74848c-11.23888,-1.03867 -23.09832,-0.6813 -34.32126,0.38247c-6.07155,0.57549 -12.42959,0.0488 -18.43744,1.06516c-7.42606,1.25628 -14.88564,2.37857 -22.36649,3.72106c-10.02783,0.0319 -20.2473,0.21767 -30.16892,-1.50344c-16.19751,-2.8098 -32.62837,-6.39124 -49.18618,-4.02585c-26.67895,0.03266 -53.20733,2.02666 -79.74063,4.43021c-7.82554,0.00482 -15.71196,0.13303 -23.50767,-0.37113c-4.69785,-0.30382 -9.30264,-1.79954 -13.91056,-2.61241c-6.45614,-1.13892 -14.17685,-1.17562 -20.66699,-0.35305c0,0 -2.4807,0.31009 -2.79078,-2.17061c-0.31009,-2.48069 2.17061,-2.79078 2.17061,-2.79078c1.13799,-0.14047 2.30626,-0.25671 3.49486,-0.34776c-0.18728,-0.25491 -0.34285,-0.57952 -0.44589,-0.99169c-0.60634,-2.42535 1.81902,-3.03169 1.81902,-3.03169l1.63462,-0.40319c10.43058,-1.89629 20.30436,-2.32484 30.8331,-1.14312c9.73588,-0.01324 19.49792,0.16723 29.19441,-0.36641c7.97711,-0.43901 16.01974,0.39123 23.99866,-0.00146c4.87833,-0.24009 9.62869,-1.10462 14.54141,-1.11145c15.66816,0 31.03988,0.57661 46.63342,1.48033c5.8714,0.34028 11.69227,0.29289 17.53527,1.12691c0,0 2.47487,0.35355 2.12132,2.82842c-0.13925,0.97476 -0.60758,1.51075 -1.12415,1.80239c6.11964,0.92025 12.21122,2.07278 18.26523,3.12846c9.49092,1.65499 19.25957,1.41201 28.85084,1.44755c7.31124,-1.34828 14.62847,-2.46087 21.89835,-3.65642c6.16969,-1.01462 12.60927,-0.52711 18.83379,-1.1228c2.9695,-0.28418 5.98046,-0.51725 9.01188,-0.68886c-12.29944,-0.7501 -24.58355,-1.71485 -36.97779,-1.71485c-12.14125,0 -23.85527,1.21565 -35.79606,2.92586l-1.70763,0.34546c0,0 -2.45145,0.49029 -2.94174,-1.96116c-0.49029,-2.45145 1.96116,-2.94174 1.96116,-2.94174l1.98111,-0.3923c12.17554,-1.73466 24.12487,-2.97612 36.50316,-2.97612c20.27847,0 40.2608,2.58212 60.49527,2.58212c0,0 2.5,0 2.5,2.5c0,0.90083 -0.32459,1.47706 -0.73987,1.84566c0.36437,0.03045 0.72816,0.06223 1.09135,0.09538c0.06118,0.00774 0.12237,0.01538 0.18356,0.02292c-0.00129,-0.03921 -0.00195,-0.07908 -0.00195,-0.11959zM315.75783,84.15712c-2.0883,0.45517 -4.26571,0.36698 -6.36712,0.75717c-0.71096,0.13201 -1.3997,0.27997 -2.07448,0.43531c2.06756,0.01056 4.13337,0.03955 6.19315,0.14173c7.24555,0.35945 14.48214,1.11198 21.72918,1.47383c12.58595,0.62842 25.46066,-0.13313 37.99778,-1.0951c4.25887,-0.56862 8.37029,-1.06562 12.60607,-1.36502c-17.39368,-0.19129 -34.78978,-0.65726 -52.18324,-0.65726c-5.71391,0 -11.4278,0 -17.14171,0c-0.40723,0.23103 -0.75964,0.30934 -0.75964,0.30934zM398.73494,85.17393c3.85021,0.82711 8.36647,0.48955 12.27441,0.31615c3.25473,-0.14441 6.93014,-1.29238 10.16881,-1.10735c2.72566,0.15572 5.38799,0.98128 8.11522,1.10662c8.6433,0.39726 16.60729,0.4887 25.06079,2.61969c2.11498,0.23372 4.25208,0.18708 6.37474,0.33575c0.71205,0.04987 1.40596,0.51292 2.10734,0.38036c2.24588,-0.42447 4.34051,-1.53299 6.60544,-1.84002c1.76743,-0.23959 3.40461,-0.2178 4.99412,-0.33385c-16.40084,-4.21706 -33.40376,-2.43461 -50.4026,-2.43461c-7.75797,0 -15.46218,0.36888 -23.23903,0.36888h-1.4755c-0.76556,0 -1.53113,-0.00091 -2.2967,-0.00265c0.56266,0.22777 1.12372,0.46446 1.71297,0.59104zM20.53423,85.8915c4.42413,0.7592 8.87795,2.28151 13.38609,2.55183c7.6269,0.45732 15.31625,0.36162 22.97041,0.36661c26.47706,-2.4164 52.98645,-4.45777 79.61275,-4.42276c0.99533,-0.14219 1.99036,-0.26356 2.98506,-0.36548c-11.98521,-0.58119 -23.90575,-0.91166 -36.00646,-0.91166c-4.80936,-0.00734 -9.45396,0.85953 -14.23072,1.10179c-7.96357,0.40389 -15.99489,-0.44807 -23.9549,-0.00146c-9.90519,0.55574 -19.8804,0.38365 -29.82535,0.37134c-8.66032,-0.95349 -16.80665,-0.83296 -25.25898,0.35844c3.53982,0.08218 7.05994,0.39156 10.32212,0.95136z" fill="#2d2d2d" stroke-width="0.5"/><path d="M-0.27935,12.19028c-0.92848,-2.32119 1.39272,-3.24967 1.39272,-3.24967l3.37918,-0.84191l1.16559,0.2914l0.23581,-0.29916c1.56085,0.15561 4.9729,0.09955 6.99752,1.40673c0.23721,0.08198 0.4674,0.18499 0.68884,0.31422c3.61443,2.10929 5.15459,7.17216 1.5207,10.35915c-1.53619,1.34727 -3.94612,1.50459 -5.98245,1.33619c-0.11464,-0.00948 -0.22843,-0.02259 -0.34144,-0.03903l-0.00274,0.02467l-3.28988,-0.36554c-1.2652,-0.12362 -2.2539,-1.19037 -2.2539,-2.48804c0,-0.90946 0.48562,-1.70549 1.21171,-2.14294l0.82849,-0.5178l-2.12354,-1.59265c-0.17371,-0.12737 -0.33036,-0.27663 -0.46589,-0.44372c-0.0844,-0.06846 -0.16425,-0.14231 -0.23903,-0.22102c-0.74123,0.12642 -2.07218,0.09283 -2.72166,-1.53086z" fill="#313131" stroke-width="0.5"/><path d="M474.04326,17.40983c-0.10956,0.11428 -0.24799,0.2197 -0.41999,0.31664c-0.21677,0.15477 -0.45066,0.30961 -0.70249,0.46436c-5.33954,3.28107 -15.26614,-4.26965 -10.56276,-10.41853c1.84961,-2.41806 5.47254,-2.34663 8.34514,-0.89709c1.58667,-0.0897 3.30015,-0.20425 4.43776,0.78166c1.7269,1.49663 3.58179,4.1754 2.72121,6.29235c-0.05435,0.13371 -0.1226,0.25834 -0.2031,0.37417c-0.3377,0.93624 -1.21843,1.61298 -2.26204,1.65005c-0.3069,0.4743 -0.74988,0.95456 -1.35372,1.43638z" fill="#313131" stroke-width="0.5"/><path d="M308.28902,249.18526c0,-1.10624 0.71851,-2.04467 1.71432,-2.37405c-2.15891,-1.73145 -4.58414,-3.19536 -7.12565,-4.3594c-3.13616,-1.02479 -6.30653,-1.94546 -9.35967,-2.9445c-14.05528,-2.72365 -28.01644,1.50592 -41.43638,6.28903c-4.73772,2.2639 -8.63104,5.55929 -13.00224,8.30564c6.29853,-0.09616 12.59434,-0.2263 18.88313,-0.40693c0.50236,-0.01443 1.00469,-0.03065 1.50699,-0.04834c0.37406,-0.78722 1.14744,-1.34795 2.05837,-1.4204l4.95408,-0.45037c6.02473,-1.71428 13.88518,-0.73819 20.11953,-0.9346c6.01386,-0.18946 12.04529,-0.27204 18.08037,-0.27226c0.42874,-0.34755 0.97477,-0.55606 1.56948,-0.55692l2.17638,-0.00368c-0.08987,-0.25779 -0.13871,-0.53481 -0.13871,-0.82323zM322.96185,244.84089c0.25848,0 0.5078,0.03923 0.74232,0.11205l2.48654,0.71044l2.85984,0.71496c0.95357,0.2164 1.7001,0.97788 1.89469,1.93954l0.90298,0.48622c0.80748,0.41446 1.35997,1.25547 1.35997,2.22553c0,0.03009 -0.00053,0.06006 -0.00159,0.0899l3.28654,0.37362c0.49705,0.04972 0.95119,0.24503 1.31918,0.54266c2.87234,0.25266 5.74305,0.53792 8.6119,0.87252c3.35494,0.39129 6.70055,0.8737 10.02907,1.44785c0.25586,0.04413 0.51462,0.07879 0.77495,0.10833c0.93494,-0.00474 1.86985,-0.00708 2.80477,-0.00868c0.11415,-0.01596 0.23076,-0.02421 0.34931,-0.02421l0.99834,0c0.39127,-0.86984 1.26546,-1.47549 2.28111,-1.47549h5c2.18586,-0.64596 5.11994,-0.37965 7.94325,0.01158c14.95227,0.04992 29.82769,0.29405 44.7697,1.3328c0.05611,-0.02293 0.11325,-0.04387 0.17132,-0.06275l4.66268,-1.63761l0.00812,0.02311c0.04127,-0.02205 0.08269,-0.04389 0.12424,-0.0655c1.19477,-0.62142 2.57386,-0.74347 3.92004,-0.95443c0.24605,-0.283 0.55471,-0.51012 0.9044,-0.6598l0.6964,-0.31654c0.01533,-1.15703 0.81665,-2.12437 1.89438,-2.39241l3.97565,-1.08427c3.79075,-2.03728 9.16748,-2.73365 13.81629,-3.1586c13.1104,-3.83316 26.28356,-6.39384 39.62382,-9.3392l3.48634,-0.81256c0,0 2.43475,-0.56743 3.00219,1.86732c0.56743,2.43475 -1.86732,3.00219 -1.86732,3.00219l-3.51495,0.81914c-4.06702,0.89733 -8.11794,1.75813 -12.15599,2.63046c0.17045,0.33796 0.26645,0.7199 0.26645,1.12425c0,0.38767 -0.08824,0.75473 -0.24573,1.08219l0.9739,0.12174c0.01537,0.0017 0.03071,0.00353 0.046,0.0055l0.23919,-0.01464c0.05794,-0.00401 0.11642,-0.00606 0.17537,-0.00606c1.38071,0 2.5,1.11929 2.5,2.5c0,1.28702 -0.97254,2.3469 -2.22282,2.48481l-2.91808,0.36476l-0.00397,-0.03173l-0.24124,0.03659c-0.47542,0.07156 -0.9516,0.14736 -1.42833,0.22719c-5.57826,2.17887 -11.65275,3.52475 -17.48165,4.99121c2.63994,-0.10704 5.27245,-0.18442 7.91732,-0.19953c1.38091,-0.33297 2.74254,-0.75358 4.041,-1.31818c0,0 2.21848,-0.95078 3.23,1.19591c0.23582,0.00875 0.47113,0.03323 0.70579,0.07745c0.1023,0.01928 0.20371,0.04128 0.30428,0.06579l0.00581,-0.04648l2.11337,0.26417l1.92551,0.11973c0.40662,0.02195 0.7874,0.14107 1.11954,0.33455h3.01558c1.38071,0 2.5,1.11929 2.5,2.5c0,1.27327 -0.95187,2.32422 -2.18283,2.48007l-3.11356,0.44479c0.31458,0.41811 0.50103,0.93809 0.50103,1.50162c0,0.25755 -0.03895,0.50601 -0.11127,0.7398c0.30193,0.41319 0.48014,0.9225 0.48014,1.47345c0,1.38071 -1.11929,2.5 -2.5,2.5h-3.68874l0,-0.04254c-0.07803,0.01168 -0.15633,0.0222 -0.23493,0.03147c-1.24803,0.14732 -2.47744,-0.25165 -3.70817,-0.60767c-2.57574,-0.15186 -5.14677,-0.3234 -7.7156,-0.50028c-0.40476,0.28206 -0.89689,0.44745 -1.42764,0.44745c-0.00659,0 -0.01318,-0.00003 -0.01977,-0.00008l-4.99703,-0.0338c-5.88402,1.04385 -12.58806,-0.938 -18.51646,-1.14097c-7.19753,-0.24641 -14.45981,0.00205 -21.66244,0.00205h-2.58211c0,0 0,0 0,0c-0.83017,0 -1.56583,-0.40464 -2.02051,-1.02745c-4.2798,-0.23807 -8.55935,-0.48063 -12.83814,-0.73607c-14.56214,-0.86938 -29.04668,-1.78682 -43.51242,-3.0891c-2.13418,-0.05307 -4.26835,-0.10626 -6.40252,-0.15958c-4.77821,0.11122 -9.54911,0.21781 -14.32959,0.21685c-1.70164,-0.00034 -3.45419,0.41096 -5.10491,-0.0022c-0.03441,-0.00861 -0.06877,-0.01739 -0.10307,-0.02632l-0.00166,0.01972l-3.65265,-0.30737c-11.44958,0.42973 -22.89925,0.8943 -34.35434,1.01491c-0.61219,0.06619 -1.21979,0.09711 -1.8131,0.01616c-0.69686,0.00507 -1.39374,0.00878 -2.09064,0.01107l-3.61042,0.01176c-0.00318,0.00001 -0.00635,0.00002 -0.00953,0.00002c-0.52454,0 -1.01135,-0.16155 -1.41339,-0.4376c-0.67773,0.70906 -1.6899,0.79707 -1.6899,0.79707l-3.50289,0.3046c-3.66373,0.31832 -7.33026,0.56539 -10.99917,0.76183c-0.45362,0.22709 -0.90583,0.48409 -1.3577,0.77621c0,0 -1.95126,1.21954 -3.27979,-0.55339c-1.24166,0.05325 -2.48358,0.10171 -3.72573,0.14616c-3.52762,0.45093 -7.06083,0.85883 -10.60045,1.21458c-4.1721,0.41932 -8.23164,0.6844 -12.32361,0.80131c-0.38545,0.33638 -0.87507,0.55642 -1.41409,0.60536l-4.94517,0.51157c-2.33868,0.67516 -7.84479,0.53903 -10.21923,0.5506c-6.68516,0.03256 -13.36144,-0.0018 -20.04597,-0.09717c-13.09,-0.18676 -26.1421,-0.63374 -39.18934,-1.32353c-0.34635,0 -0.6927,0 -1.03905,0c-1.66667,0.00003 -3.3831,0.40423 -5,0l-5,0c-0.55765,0 -1.07265,-0.18258 -1.48849,-0.49123c-3.90762,-0.02179 -7.8151,-0.04689 -11.72257,-0.07918c0.04868,0.19472 0.07452,0.39848 0.07452,0.60828c0,1.38071 -1.11929,2.5 -2.5,2.5c-0.01825,0 -0.03646,-0.0002 -0.05462,-0.00058l-4.99142,-0.09369l0.00038,-0.02009l-0.01001,-0.00023c-1.59303,0.48992 -3.33248,-0.07563 -4.9987,-0.11394c-6.42669,-0.14776 -12.81336,-0.91012 -19.2052,-1.58541c-7.97368,-0.84241 -15.94529,-1.70884 -23.91564,-2.5883c-14.30572,-0.54473 -28.61812,-1.22769 -42.86292,-2.6398c-0.97426,-0.0484 -1.94849,-0.09774 -2.92286,-0.14259c-1.82215,-0.03514 -3.64421,-0.06468 -5.46616,-0.08787c-1.22272,0.11604 -2.45637,0.32091 -3.60097,-0.03734c-0.6465,-0.00514 -1.29299,-0.00941 -1.93945,-0.01279l-0.81786,-0.00277c-0.11542,1.22418 -1.11357,2.19148 -2.35118,2.25866l-4.95085,0.30943c-4.01776,0.34328 -9.48273,1.64363 -13.75087,1.28618l-3.32737,0.52651c-0.14155,0.02489 -0.28721,0.03787 -0.4359,0.03787c-0.84538,0 -1.59275,-0.4196 -2.04522,-1.0619l-0.69443,-0.0496c-1.30732,-0.08128 -2.34247,-1.16732 -2.34247,-2.49512c0,-0.83834 0.41264,-1.5803 1.0459,-2.03385c-1.10481,0.1223 -2.2092,0.2455 -3.31326,0.36649l-0.04114,-0.00919l0.00097,0.01262l-4.95781,0.38231c-0.07236,0.0063 -0.1456,0.00951 -0.2196,0.00951c-1.38071,0 -2.5,-1.11929 -2.5,-2.5c0,-1.19925 0.84441,-2.20127 1.9711,-2.44395l1.53168,-0.36436c-0.32992,-0.42363 -0.52644,-0.95627 -0.52644,-1.5348c0,-1.38071 1.11929,-2.5 2.5,-2.5h4.42648c5.73815,-1.11151 12.72754,0.0254 18.70306,0.49442c5.03739,0.11005 10.07263,0.27839 15.11473,0.44702c3.09036,0.10335 9.91991,-0.29097 12.89254,0.88628c0.03024,0.00541 0.06044,0.01096 0.09062,0.01665l2.71873,0c0.84241,-0.03353 1.6989,-0.03605 2.56403,-0.01562c-6.50542,-1.8112 -13.00324,-3.64976 -19.51846,-5.43099c-3.25632,-0.89026 -6.49088,-1.86468 -9.69593,-2.92477c-1.19867,-0.39647 -2.51864,-0.54822 -3.67625,-1.02784c-0.47561,-0.10742 -0.95134,-0.21431 -1.42718,-0.32071l-0.05714,-0.03923l-0.00626,0.02242l-4.30494,-1.20222c-0.82139,-0.20946 -1.48018,-0.82566 -1.74923,-1.62145c-3.75958,-1.00191 -7.51129,-2.03181 -11.24635,-3.12102l-3.99953,-1.16653c-1.06731,-0.28495 -1.85344,-1.25847 -1.85344,-2.41559c0,-1.38071 1.11929,-2.5 2.5,-2.5c0.22872,0 0.45026,0.03071 0.66073,0.08824l4.39417,1.09854c0.7375,-2.02887 2.92891,-1.48101 2.92891,-1.48101c9.31249,2.32858 18.66758,4.80041 27.70774,8.08172c7.75952,2.05344 15.5194,4.25972 22.99659,7.01109l0.01271,0.00971l0.00163,-0.00427l0.79644,0.30457c4.64147,1.11454 9.22979,2.23248 13.80004,3.63776c1.05831,0.32541 2.2042,0.46337 3.25783,0.79909c0.74031,0.14556 1.48013,0.29229 2.21931,0.44073l0.07455,0.05163l0.00833,-0.03054l4.00521,1.09233c1.0882,0.27065 1.8946,1.25425 1.8946,2.4262c0,0.02093 -0.00026,0.04179 -0.00077,0.06259c5.2457,0.29279 10.48763,0.61468 15.73056,0.94476c0.29333,-0.12084 0.6147,-0.18749 0.95163,-0.18749h5c3.13757,-0.61307 6.39381,0 9.59071,0c7.73211,0 15.4273,0.07963 23.15502,0.34611c15.72202,0.54214 31.40838,1.08656 47.10272,1.91732c5.1905,-0.13026 10.38113,-0.24338 15.57178,-0.34981c-0.00299,-0.05007 -0.00451,-0.10055 -0.00451,-0.15137c0,-1.37761 1.11427,-2.49497 2.4907,-2.49998l3.36309,-0.01433c1.3131,-0.54494 2.82111,-0.14051 4.27126,-0.01787c9.65184,-0.04054 19.31684,-0.08524 28.97961,-0.19366c0.02442,-0.43083 0.15793,-0.83247 0.37335,-1.17775l2.1921,-3.6535l0.06026,0.03615c0.0716,-0.14317 0.14712,-0.28465 0.22699,-0.42426c0.71401,-1.24811 2.2263,-1.82842 3.42534,-2.62209c1.13021,-0.74811 2.29771,-1.43383 3.4873,-2.08201l0.92243,-0.92243l0.0457,0.0457c0.08416,-0.10385 0.17085,-0.20591 0.26029,-0.30603c1.02113,-1.14302 2.70911,-1.43736 4.09864,-2.08421c2.9248,-1.36154 4.08566,-1.81737 5.78394,-2.39969l1.34516,-0.78792c0.37884,-0.23114 0.82399,-0.36431 1.30024,-0.36431c0.1945,0 0.3838,0.02221 0.56553,0.06423c0.18099,-0.06223 0.36901,-0.12712 0.56467,-0.19497c6.54553,-2.26973 13.05168,-4.05817 19.70018,-5.18139c-0.05952,-0.21381 -0.09134,-0.43917 -0.09134,-0.67196c0,-1.38071 1.11929,-2.5 2.5,-2.5c0.25848,0 0.5078,0.03923 0.74232,0.11205l3.27737,0.93639c0.62499,0.16502 1.24924,0.33151 1.87271,0.49974c0.63156,0.09691 1.2797,0.25351 1.93848,0.45265c1.74518,-0.10255 3.50561,-0.15573 5.28434,-0.15647c4.62393,-0.00192 8.33738,-0.2962 12.792,1.24626c6.38075,2.2094 11.52674,6.77872 16.55278,11.04539l0.11231,0.3958l0.12377,-0.07736l1.08006,1.7281c0.36234,-0.20438 0.78076,-0.32099 1.22642,-0.32099zM448.17875,255.29342c0,-0.4019 0.09484,-0.78166 0.26335,-1.1181c-0.41899,-0.11712 -0.79356,-0.34066 -1.09272,-0.63964c-1.74164,0.28167 -3.4855,0.56567 -5.23316,0.84769c-1.82608,0.29467 -3.64708,0.62426 -5.46123,0.9877c1.63363,0.0559 3.26657,0.13893 4.9009,0.16715c0.07819,0 0.15638,0 0.23457,0c1.59313,-0.03093 3.30834,-0.66352 4.74403,0l1.65609,0c-0.00783,-0.08054 -0.01183,-0.1622 -0.01183,-0.2448z" fill="#313131" stroke-width="0.5"/></g></g></svg>