<svg version="1.1" xmlns="http://www.w3.org/2000/svg" xmlns:xlink="http://www.w3.org/1999/xlink" width="525.94259" height="381.58275" viewBox="0,0,525.94259,381.58275"><g transform="translate(6.93131,0.23876)"><g data-paper-data="{&quot;isPaintingLayer&quot;:true}" fill-rule="nonzero" stroke="none" stroke-linecap="butt" stroke-linejoin="miter" stroke-miterlimit="10" stroke-dasharray="" stroke-dashoffset="0" style="mix-blend-mode: normal"><path d="M-6.93131,381.34399v-381.58275h525.94259v381.58275z" fill="#000000" stroke-width="0"/><text transform="translate(92.45856,165.47258) scale(2.54997,1.25915)" font-size="40" xml:space="preserve" fill="#ffffff" fill-rule="nonzero" stroke="none" stroke-width="1" stroke-linecap="butt" stroke-linejoin="miter" stroke-miterlimit="10" stroke-dasharray="" stroke-dashoffset="0" font-family="Sans Serif" font-weight="normal" text-anchor="start" style="mix-blend-mode: normal"><tspan x="0" dy="0">START</tspan><tspan x="0" dy="46.150000000000006px"> </tspan></text><path d="M1.76766,364.15331v-48.3865h484.43422v48.3865z" fill="#ffffff" stroke-width="0"/><path d="M86.58634,324.30561v-45.54023h25.04713v45.54023z" fill="#ffffff" stroke-width="0"/><path d="M195.8829,317.47457v-76.27989h54.07903v76.27989z" fill="#ffffff" stroke-width="0"/><path d="M358.68923,336.82917v-117.83535h34.72443v117.83535z" fill="#ffffff" stroke-width="0"/><path d="M290.37888,331.13664v-127.51265h31.30891v127.51265z" fill="#ffffff" stroke-width="0"/><path d="M317.13377,259.41078v-15.93908h54.07903v15.93908z" fill="#ffffff" stroke-width="0"/><path d="M434.96912,326.58262v-136.05144h51.23276v136.05144z" fill="#ffffff" stroke-width="0"/><path d="M140.09612,319.75159v-123.52788h16.50833v123.52788z" fill="#ffffff" stroke-width="0"/><path d="M8.02944,320.89009v-111.57357h27.32414v111.57357z" fill="#ffffff" stroke-width="0"/><path d="M52.43117,323.1671v-61.47931h17.64684v61.47931z" fill="#ffffff" stroke-width="0"/><path d="M174.25129,316.90532v-29.60115h24.47787v29.60115z" fill="#ffffff" stroke-width="0"/><path d="M420.16854,324.87486v-34.15517h14.23132v34.15517z" fill="#ffffff" stroke-width="0"/><path d="M425.29182,318.61308v-26.75489h23.33937v26.75489z" fill="#ffffff" stroke-width="0"/><path d="M427.56883,291.85819v-49.525h21.63161v49.525z" fill="#ffffff" stroke-width="0"/><path d="M454.89297,197.36221v-27.89339h17.64684v27.89339z" fill="#ffffff" stroke-width="0"/><path d="M464.57027,174.02284v-26.75489h0.56925v26.75489z" fill="#ffffff" stroke-width="0"/></g></g></svg>