<svg version="1.1" xmlns="http://www.w3.org/2000/svg" xmlns:xlink="http://www.w3.org/1999/xlink" width="809.5" height="404.5" viewBox="0,0,809.5,404.5"><g transform="translate(252,29)"><g data-paper-data="{&quot;isPaintingLayer&quot;:true}" fill-rule="nonzero" stroke="none" stroke-linecap="butt" stroke-linejoin="miter" stroke-miterlimit="10" stroke-dasharray="" stroke-dashoffset="0" style="mix-blend-mode: normal"><path d="M-252,-26.5c0,-1.38071 1.11929,-2.5 2.5,-2.5c1.38071,0 2.5,1.11929 2.5,2.5c0,1.38071 -1.11929,2.5 -2.5,2.5c-1.38071,0 -2.5,-1.11929 -2.5,-2.5z" fill="#000000" stroke-width="0.5"/><path d="M-36.5,375.5v-394h594v394z" fill="#000000" stroke-width="0"/><path d="M-217.61769,-16.39225c0,-1.38071 1.11929,-2.5 2.5,-2.5c1.38071,0 2.5,1.11929 2.5,2.5c0,1.38071 -1.11929,2.5 -2.5,2.5c-1.38071,0 -2.5,-1.11929 -2.5,-2.5z" fill="#ffffff" stroke-width="0.5"/><path d="M-2.78636,358.17616v-25.61638h483.29571v25.61638z" fill="#ffffff" stroke-width="0"/><path d="M35.92284,337.68305v-42.12471h7.40029v42.12471z" fill="#ffffff" stroke-width="0"/><path d="M117.89526,333.69828v-17.07758h81.97242v17.07759z" fill="#ffffff" stroke-width="0"/><path d="M343.88866,335.40604v-35.86293h23.90862v35.86293z" fill="#ffffff" stroke-width="0"/><path d="M447.49268,333.12903v-83.68017h33.01667v83.68017z" fill="#ffffff" stroke-width="0"/><path d="M72.35502,334.26754v-46.10948h15.36983v46.10948z" fill="#ffffff" stroke-width="0"/><path d="M224.9148,335.40604v-48.95575h52.94052v48.95575z" fill="#ffffff" stroke-width="0"/><path d="M401.3832,337.1138v-64.89483h21.06236v64.89483z" fill="#ffffff" stroke-width="0"/><path d="M287.53262,334.26754v-22.77012h11.95431v22.77012z" fill="#ffffff" stroke-width="0"/><path d="M167.42026,322.31322v-49.525h26.18563v49.525z" fill="#ffffff" stroke-width="0"/><path d="M135.54209,317.18995v-19.92385h16.50833v19.92385z" fill="#ffffff" stroke-width="0"/><path d="M101.95617,335.40604v-51.80201h6.83103v51.80201z" fill="#ffffff" stroke-width="0"/><path d="M87.1556,302.38937v-7.40029h17.64684v7.40029z" fill="#ffffff" stroke-width="0"/><path d="M-2.21711,332.55978v-66.03334h7.96954v66.03334z" fill="#ffffff" stroke-width="0"/><path d="M13.15272,336.54455v-52.37127h6.83103v52.37127z" fill="#ffffff" stroke-width="0"/><path d="M51.86192,334.83679v-24.47787h13.66207v24.47787z" fill="#ffffff" stroke-width="0"/><path d="M315.42601,341.66782v-76.84914h19.92385v76.84914z" fill="#ffffff" stroke-width="0"/><path d="M499.67631,6.4589c0,13.51876 -9.81223,24.47787 -21.91624,24.47787c-12.104,0 -21.91624,-10.95912 -21.91624,-24.47787c0,-13.51876 9.81223,-24.47787 21.91624,-24.47787c12.104,0 21.91624,10.95912 21.91624,24.47787z" fill="#ffffff" stroke-width="0"/></g></g></svg>